<svg viewBox="0 0 152 58" fill="none" xmlns="http://www.w3.org/2000/svg">
<path d="M88.6262 55.325C88.2847 55.4486 88.0184 55.5449 87.8302 55.606H64.1698C63.9816 55.5449 63.7153 55.4486 63.3738 55.325C60.4564 54.2697 52.0494 51.2285 39.9462 51.2285C32.5111 51.2285 25.1532 52.3573 19.6801 53.4751C16.9372 54.0353 14.6532 54.5958 13.0514 55.0173C12.4543 55.1744 11.9516 55.3123 11.5547 55.4239L2.73575 47.6361C2.83741 47.4921 2.94007 47.3386 3.04238 47.1754C3.91476 45.7841 4.74292 43.7197 4.74292 40.9461V40.932L4.74272 40.918C4.69698 37.7774 3.71692 34.7252 1.9322 32.0655V25.5404C3.71692 22.8807 4.69698 19.8284 4.74272 16.6879L4.74292 16.6738V16.6597C4.74292 13.8861 3.91476 11.8217 3.04238 10.4304C2.94007 10.2672 2.83741 10.1137 2.73575 9.96969L11.5552 2.18152C11.9532 2.29316 12.4577 2.4313 13.057 2.58872C14.6613 3.01015 16.9483 3.57059 19.6932 4.13076C25.1701 5.24846 32.528 6.37729 39.9462 6.37729C52.0494 6.37729 60.4564 3.33613 63.3738 2.2808C63.7153 2.15725 63.9816 2.06092 64.1698 1.99987H87.8302C88.0184 2.06092 88.2847 2.15725 88.6262 2.2808C91.5435 3.33612 99.9506 6.37729 112.054 6.37729C119.49 6.37729 126.841 5.24063 132.306 4.11503C135.045 3.55091 137.325 2.98651 138.924 2.56207C139.518 2.40444 140.018 2.266 140.413 2.1539L149.232 9.94096C149.13 10.0854 149.028 10.2395 148.925 10.4032C148.056 11.7966 147.237 13.8629 147.257 16.636L147.257 16.6431L147.257 16.6503C147.303 19.7908 148.283 22.8431 150.068 25.5028V32.0655C148.283 34.7252 147.303 37.7774 147.257 40.918L147.257 40.932V40.9461C147.257 43.7197 148.085 45.7841 148.958 47.1754C149.06 47.3386 149.163 47.4921 149.264 47.6361L140.445 55.4243C140.047 55.3127 139.542 55.1745 138.943 55.0171C137.339 54.5957 135.052 54.0352 132.307 53.4751C126.83 52.3574 119.472 51.2285 112.054 51.2285C99.9506 51.2285 91.5435 54.2697 88.6262 55.325Z" stroke="#A27E51" stroke-width="3"/>
</svg>
